<?xml version="1.0" encoding="utf-8"?>
<!-- Generator: Adobe Illustrator 26.5.0, SVG Export Plug-In . SVG Version: 6.00 Build 0)  -->
<svg version="1.1" id="Capa_1" xmlns="http://www.w3.org/2000/svg" xmlns:xlink="http://www.w3.org/1999/xlink" x="0px" y="0px"
	 viewBox="0 0 1000 1000" style="enable-background:new 0 0 1000 1000;" xml:space="preserve">
<style type="text/css">
	.st0{fill:#3DAE2B;}
</style>
<g>
	<g>
		<path class="st0" d="M466.3,14.6c-251.4,185.8-434,635.6-41.5,954.9c42.1,34.2,102.2,33.9,144-0.7
			c349.5-288.9,284.6-695.6-42-953.1C509.2,1.9,484.4,1.3,466.3,14.6z M271.4,348.9c4.7-12.7,21-16.2,30.2-6.2
			c77.1,84,169.7,215.1,169.7,360.4c1.1,20.8-26.3,30-37.5,12.4C370.2,615.7,289.4,541.1,249,507.2c-4.2-3.6-6.7-8.9-6.5-14.5
			C244.3,444.2,254,396,271.4,348.9z M524.8,412.7c7-68.5,33.9-139.3,80-211.3c6.8-10.5,21.7-11.4,29.5-1.5
			c14.8,18.8,29.3,39,43,60.3c4.6,7.2,3.2,16.5-2.8,22.6C634.5,323.2,533.8,494.9,524.8,412.7z M432.1,426.7
			c-37-57.7-79.5-106.8-116-143.9c-5.7-5.8-6.9-14.6-2.8-21.6c13.2-22.4,28.3-44.3,45.1-65.8c7.5-9.7,22.4-8.8,29.1,1.6
			C433.9,269.4,519,467.5,432.1,426.7z M523,703.1c0-146.1,93.7-277.9,171-361.8c8.8-9.6,24.6-6.8,29.7,5.2
			c19,44,32.1,91.1,35.2,139.9c0.4,5.7-2.1,11.3-6.5,14.9c-37.2,30.6-124.3,108.2-191.8,214.2C549.3,733.1,521.9,724,523,703.1z
			 M529.1,86.8c13.2,12.1,28.5,26.8,44.7,43.6c5.7,5.9,6.5,15,2.2,21.9c-97.2,157.2-63.6,146.3-159.3-2.6
			c-4.6-7.1-3.8-16.6,2.2-22.5c14.1-14,28.9-27.8,44.5-41.3C482.3,69.6,510.6,69.9,529.1,86.8z M261.3,636.4
			c-5.5-18.4,18.3-31.4,30.9-16.8c78.1,90.8,222.1,286.8,122.3,264.6C339,807.9,287.1,723.7,261.3,636.4z M548.6,855
			c36-98.3,103.8-183.3,160-241.9c13.6-14.2,37,0.5,29.7,18.8C692.6,747.5,565.2,949.2,548.6,855z"/>
	</g>
</g>
</svg>
