<?xml version="1.0" encoding="utf-8"?>
<!-- Generator: Adobe Illustrator 29.3.1, SVG Export Plug-In . SVG Version: 9.03 Build 55982)  -->
<svg version="1.0" id="Capa_1" xmlns="http://www.w3.org/2000/svg" xmlns:xlink="http://www.w3.org/1999/xlink" x="0px" y="0px"
	 viewBox="0 0 180 180" style="enable-background:new 0 0 180 180;" xml:space="preserve">
<style type="text/css">
	.st0{fill:#F94038;}
</style>
<g>
	<path class="st0" d="M64.4,15.9L12.9,45.7v23.1L64.4,39l51.5,29.7V45.7L64.4,15.9z M64.4,15.9"/>
	<path class="st0" d="M115,164.6l-51.5-29.7v-23.1l51.5,29.7l51.5-29.7v23.1L115,164.6z M115,164.6"/>
	<path class="st0" d="M12.9,74.9l51.5-29.7l20,11.5L32.8,86.5V146l-20-11.5V74.9z M12.9,74.9"/>
	<path class="st0" d="M141.2,30.9L89.7,1.2l-20,11.5l51.5,29.7v59.5l20-11.5V30.9z M141.2,30.9"/>
	<path class="st0" d="M38.3,149.4l0-59.5l20-11.5v59.5l51.5,29.7l-20,11.5L38.3,149.4z M38.3,149.4"/>
	<path class="st0" d="M166.5,105.6V46.1l-20-11.5V94L95,123.8l20,11.5L166.5,105.6z M166.5,105.6"/>
</g>
</svg>
