<svg xmlns="http://www.w3.org/2000/svg" id="Layer_1" data-name="Layer 1" viewBox="0 0 458.25 156.82"><path d="M983.72,758.63c-3.87-8-9.54-21.82-13.4-32.46l-2.21.28c.83,12.29,1.65,29.83,1.65,39.92v25H951.25V708.49h28.18l14.51,27.76a275,275,0,0,1,14.09,34.4l2.21-.27c-1-12-1.66-26.53-1.66-36.34V708.49H1027v82.88h-26.38Z" transform="translate(-730.87 -706.56)"/><path d="M1061.07,764.85v26.52h-19.89V708.49h60v18.23h-40.06v20.86h36.47v17.27Z" transform="translate(-730.87 -706.56)"/><path d="M1110.39,749.66c0-27.22,15.88-43.1,41-43.1,21.83,0,34.95,11.6,37.44,32.18l-18.92,3.73c-2.21-12.15-7.6-18.51-19.07-18.51-14.64,0-20.72,11.19-20.72,25.7,0,16.43,6.22,26.52,20.58,26.52,12.16,0,17.13-6.5,19.62-18.79l18.79,3.18c-2.49,20.72-16.17,32.74-38.27,32.74C1125.17,793.31,1110.39,777,1110.39,749.66Z" transform="translate(-730.87 -706.56)"/><path d="M957.88,836.6v16.93h-6.63V810.3H980v6.06H957.88v14.48h19.74v5.76Z" transform="translate(-730.87 -706.56)"/><path d="M988.79,831.85c0-13.48,7.85-22.41,21.4-22.41s21.39,8.93,21.39,22.41-7.63,22.54-21.39,22.54S988.79,845.24,988.79,831.85Zm36.24-.08c0-9.8-4.76-16.5-14.84-16.5s-14.84,6.7-14.84,16.5c0,10,4.61,16.86,14.84,16.86S1025,841.86,1025,831.77Z" transform="translate(-730.87 -706.56)"/><path d="M1059.7,836.38h-9.22v17.15h-6.63V810.3h17.43c10.67,0,15.42,4.61,15.42,12.68,0,6.85-3.67,11.31-10.37,12.83l12.9,16.93v.79h-7.64Zm-9.22-20.46v14.77h10.16c6.12,0,9.51-2.45,9.51-7.56,0-4.83-2.38-7.21-9.44-7.21Z" transform="translate(-730.87 -706.56)"/><path d="M1118.69,836.82V810.3h6.62v26.88c0,11.16-6.12,17.14-17.5,17.14s-18.16-5.83-18.16-17.14V810.3h6.63v26.16c0,7.06,2.67,12,11.53,12C1116.24,848.49,1118.69,843.88,1118.69,836.82Z" transform="translate(-730.87 -706.56)"/><path d="M1145.49,853.53h-6.2V810.3h11l7.71,20c1.08,3,3.17,9,4.61,13.83H1164c1.52-4.82,3.46-10.66,4.68-14l7.93-19.89H1187v43.23h-6.56v-21.4c0-4.9.14-11.45.29-16.35h-1.37c-1.59,5.26-3.75,11.89-6,17.58l-7.21,17.58h-6.7l-7.06-17.87c-2.23-6.05-4.25-12.18-5.76-17.29h-1.23c.15,5,.08,11.31.08,16.35Z" transform="translate(-730.87 -706.56)"/><path d="M882.6,720.13c-.39-6-5.16-10.48-11.48-10.84-7-.4-29.55-.73-36-.73,11.59,7.68,13.18,22.15,14.28,49,.64,15.92.06,71.7,0,74.07l-.3,15.22-61-58.53V770l48.5,46.54c.12-9.21.25-21.22.25-32.2,0-10.7-.17-20.39-.49-25.48-1.82-29.29-4.66-43-20.6-48.4-4.87-1.64-9.41-2-17-2.13-6.25-.08-49.83,0-56.12.28-6.69.35-11.18,5-11.48,11s-.4,116.52,0,122.55,5.16,10.48,11.48,10.83c7,.4,29.56.46,36,.46-11.6-7.69-13.18-22.15-14.27-49-.64-15.93-.06-71.72,0-74.08l.3-15.21,61,58.52V792l-48.49-46.53c-.12,9.2-.24,21.22-.24,32.2,0,10.7.15,20.38.47,25.48,1.83,29.29,4.66,43,20.6,48.39,4.87,1.64,9.42,2,17,2.13,6.25.08,49.84,0,56.12-.28,6.69-.35,11.18-5,11.48-11s.41-116.24,0-122.26" transform="translate(-730.87 -706.56)"/><path d="M904.39,844.29a10.27,10.27,0,0,1,5,1.3,10.52,10.52,0,0,1,2,1.5A9.3,9.3,0,0,1,913,849a9.58,9.58,0,0,1,1,2.29,9.28,9.28,0,0,1-2.56,9.27,10.47,10.47,0,0,1-2,1.49,10.16,10.16,0,0,1-2.38,1,10.5,10.5,0,0,1-2.64.34,10.38,10.38,0,0,1-2.64-.34,10.18,10.18,0,0,1-4.38-2.46,9.64,9.64,0,0,1-1.56-1.93,9.06,9.06,0,0,1-1-2.27,9.11,9.11,0,0,1,0-5.07,9.2,9.2,0,0,1,1-2.29,9.64,9.64,0,0,1,1.56-1.93,10.1,10.1,0,0,1,7-2.8m0,17.91a8.74,8.74,0,0,0,2.3-.29,8.56,8.56,0,0,0,2.07-.84,8.23,8.23,0,0,0,1.74-1.3,7.86,7.86,0,0,0,1.34-1.69,8,8,0,0,0,1.17-4.24,8.09,8.09,0,0,0-.67-3.28,8.62,8.62,0,0,0-8-5.14,8.51,8.51,0,0,0-6.08,2.46,8.44,8.44,0,0,0-1.34,1.7,8.2,8.2,0,0,0-.84,2,8.35,8.35,0,0,0-.3,2.24,8.4,8.4,0,0,0,1.14,4.24,7.86,7.86,0,0,0,1.34,1.69,8.17,8.17,0,0,0,1.73,1.3,8.26,8.26,0,0,0,2.05.84,8.68,8.68,0,0,0,2.3.29m-.17-14.2a6,6,0,0,1,3.48.81,2.79,2.79,0,0,1,1.12,2.41,3.16,3.16,0,0,1-.72,2.09,3.78,3.78,0,0,1-2.16,1.18,1.61,1.61,0,0,1,.4.34,2.74,2.74,0,0,1,.32.45l3.1,4.36h-2a.72.72,0,0,1-.65-.32l-2.75-4a.89.89,0,0,0-.29-.26,1.2,1.2,0,0,0-.53-.09h-1.07v4.62h-2.12V848Zm-.22,5.53a3.31,3.31,0,0,0,2.13-.53,1.92,1.92,0,0,0,.61-1.52,2.49,2.49,0,0,0-.13-.85,1.42,1.42,0,0,0-.42-.6,2,2,0,0,0-.78-.35,5,5,0,0,0-1.19-.12h-1.78v4Z" transform="translate(-730.87 -706.56)"/></svg>