<svg width="170" height="33" viewBox="0 0 170 33" fill="none" xmlns="http://www.w3.org/2000/svg">
<path d="M102.958 27.114H97.8558V24.9173H97.7925C96.8069 26.5595 94.7671 27.5787 92.9119 27.5787C88.3053 27.5787 86.9771 24.9173 86.9771 20.7034V11.04H92.2319V20.3602C92.2319 22.4935 93.1596 23.2381 94.8304 23.2381C95.9741 23.2381 97.7029 22.4935 97.7029 19.6473V11.04H102.958V27.1087V27.114Z" fill="#0053A1"/>
<path d="M105.424 11.0453H110.526V13.8651H110.584C111.354 11.8215 113.151 10.739 115.407 10.739C115.808 10.739 116.24 10.7707 116.64 10.8605V15.6605C115.961 15.4756 115.344 15.3489 114.632 15.3489C112.034 15.3489 110.679 17.1443 110.679 19.1562V27.1139H105.424V11.0453Z" fill="#0053A1"/>
<path d="M125.522 10.5806C130.497 10.5806 133.992 14.2664 133.992 19.0981C133.992 23.9297 130.497 27.5786 125.522 27.5786C120.546 27.5786 117.083 23.9245 117.083 19.0981C117.083 14.2717 120.546 10.5806 125.522 10.5806ZM125.522 23.5548C127.962 23.5548 128.737 21.1416 128.737 19.0981C128.737 17.0545 127.967 14.6096 125.522 14.6096C123.076 14.6096 122.338 17.0545 122.338 19.0981C122.338 21.1416 123.081 23.5548 125.522 23.5548Z" fill="#0053A1"/>
<path d="M135.504 11.0453H140.512V12.904H140.575C141.597 11.3885 143.142 10.5806 144.997 10.5806C150.036 10.5806 152.165 14.9159 152.165 19.436C152.165 23.6129 149.941 27.5786 145.397 27.5786C143.421 27.5786 141.903 26.834 140.823 25.3819H140.759V32.5H135.504V11.0453ZM140.57 18.9132C140.57 21.7278 141.371 23.5548 143.753 23.5548C146.135 23.5548 146.905 21.1099 146.905 18.9132C146.905 16.8697 146.098 14.6096 143.785 14.6096C142.367 14.6096 140.57 15.6023 140.57 18.9132Z" fill="#0053A1"/>
<path d="M158.216 20.3654C158.305 22.5621 159.576 24.0195 161.8 24.0195C163.065 24.0195 164.303 23.4281 164.794 22.2558H169.706C168.747 25.9733 165.315 27.5786 161.731 27.5786C156.513 27.5786 152.956 24.4208 152.956 19.0347C152.956 14.1132 156.882 10.5806 161.61 10.5806C167.36 10.5806 170.233 14.9159 169.985 20.3654H158.21H158.216ZM164.736 17.4241C164.646 15.6288 163.376 14.1396 161.615 14.1396C159.76 14.1396 158.527 15.4703 158.216 17.4241H164.736Z" fill="#0053A1"/>
<path d="M77.727 26.9871H84.5578V22.034H74.8439L77.727 26.9871ZM64.8665 4.88281L67.5492 9.49272H84.5578V4.88281H64.8665ZM72.393 17.8201H84.5578V13.3633H69.7998L72.393 17.8201Z" fill="#0053A1"/>
<path d="M23.8973 0.5H31.0233L40.2734 16.9436H40.3472V0.5H46.8723V27.1825H39.7516L30.5015 10.5541H30.4277V27.1825H23.8973V0.5Z" fill="#1D1D1B"/>
<path d="M49.6869 15.3701H52.3749H62.5158V20.883H49.6869V15.3701Z" fill="#1D1D1B"/>
<path d="M48.269 0.537109H52.2853H55.7903L70.8751 27.246H63.5383L48.269 0.537109Z" fill="#1D1D1B"/>
<path d="M5.35503 16.6848C2.36127 16.6848 0 14.3508 0 11.4306V5.80159C0 4.06429 0.885477 2.17386 2.03449 1.36066C2.84618 0.769244 3.98992 0.510498 5.43409 0.510498H21.1671V6.28212H8.39622C6.95205 6.28212 6.32484 6.65175 6.32484 7.57585V9.39235C6.32484 10.4643 6.87826 10.9079 8.17485 10.9079H15.8806C19.0957 10.9079 21.204 12.9409 21.204 16.2042V21.5692C21.204 25.0491 18.985 27.193 15.4748 27.193H0.0368947V21.4531H12.8394C14.2783 21.4531 14.8739 20.9725 14.8739 19.9006V17.9732C14.8739 17.197 14.3574 16.6795 13.6564 16.6795H5.3603L5.35503 16.6848Z" fill="#1D1D1B"/>
</svg>
