<?xml version="1.0" encoding="utf-8"?>
<!-- Generator: Adobe Illustrator 26.5.0, SVG Export Plug-In . SVG Version: 6.00 Build 0)  -->
<svg version="1.1" xmlns="http://www.w3.org/2000/svg" xmlns:xlink="http://www.w3.org/1999/xlink" x="0px" y="0px"
	 viewBox="0 0 2048 838.7" style="enable-background:new 0 0 2048 838.7;" xml:space="preserve">
<style type="text/css">
	.st0{fill:#FFFFFF;}
	.st1{fill:#3DAE2B;}
	.st2{fill:#43A82E;}
	.st3{display:none;fill:#1F4E23;}
	.st4{display:none;}
	.st5{display:inline;}
</style>
<g id="Fondos_de_Logos">
</g>
<g id="Capa_3">
</g>
<g id="Capa_1">
	<g>
		<path class="st1" d="M237.7,119.8c-155,114.8-267.7,392.6-25.6,589.8c25.9,21.1,63.1,20.9,88.8-0.4
			C516.5,530.7,476.5,279.6,275,120.6C264.1,112,248.8,111.6,237.7,119.8z M117.5,326.3c2.9-7.8,13-10,18.6-3.8
			c47.6,51.9,104.6,132.8,104.6,222.6c0.7,12.8-16.2,18.5-23.2,7.6c-39.2-61.6-89-107.7-113.9-128.6c-2.6-2.2-4.1-5.5-4-8.9
			C100.7,385.2,106.7,355.4,117.5,326.3z M273.8,365.7c4.3-42.3,20.9-86,49.4-130.5c4.2-6.5,13.4-7,18.2-0.9
			c9.1,11.6,18.1,24.1,26.5,37.2c2.8,4.4,2,10.2-1.7,13.9C341.4,310.4,279.3,416.5,273.8,365.7z M216.6,374.4
			c-22.8-35.6-49.1-65.9-71.5-88.9c-3.5-3.6-4.3-9-1.7-13.3c8.2-13.8,17.5-27.4,27.8-40.6c4.7-6,13.8-5.4,17.9,1
			C217.7,277.2,270.2,399.5,216.6,374.4z M272.6,545c0-90.3,57.8-171.6,105.5-223.5c5.4-5.9,15.2-4.2,18.3,3.2
			c11.7,27.2,19.8,56.2,21.7,86.4c0.2,3.5-1.3,7-4,9.2c-22.9,18.9-76.7,66.8-118.3,132.3C288.9,563.6,271.9,557.9,272.6,545z
			 M276.4,164.4c8.2,7.5,17.6,16.6,27.6,27c3.5,3.6,4,9.2,1.4,13.5c-60,97.1-39.3,90.4-98.3-1.6c-2.8-4.4-2.4-10.2,1.3-13.9
			c8.7-8.7,17.8-17.2,27.4-25.5C247.6,153.8,265,154,276.4,164.4z M111.2,503.9c-3.4-11.4,11.3-19.4,19-10.4
			c48.2,56.1,137,177.2,75.4,163.4C159.2,609.8,127.2,557.8,111.2,503.9z M288.4,638.8c22.2-60.7,64-113.2,98.7-149.4
			c8.4-8.8,22.8,0.3,18.3,11.6C377.3,572.5,298.7,697,288.4,638.8z"/>
		<g>
			<path d="M528.4,142.1h156.1c46.4,0,83,33.5,83,79.4c0,27.7-13.4,52.6-32.6,64.7c27.7,11.6,47.3,44.1,47.3,79.8
				c0,49.5-37.5,83.8-87.4,83.8H528.4V142.1z M602.4,211.2v48.2h62.4c13.4,0,24.1-10.3,24.1-24.1s-10.3-24.1-24.1-24.1H602.4z
				 M602.4,324.5v56.2h73.1c16.1,0,28.1-12.5,28.1-28.1c0-15.6-12-28.1-28.1-28.1H602.4z"/>
			<path d="M806.2,154.6c0-25.4,19.2-44.2,44.2-44.2c25.4,0,44.2,18.7,44.2,44.2c0,25-18.7,43.7-44.2,43.7
				C825.4,198.3,806.2,179.6,806.2,154.6z M814.2,222.4h72.2v227.5h-72.2V222.4z"/>
			<path d="M923,336.1c0-67.8,52.6-119.1,123.1-119.1c70,0,123.1,51.3,123.1,119.1s-53.1,119.1-123.1,119.1
				C975.6,455.2,923,403.9,923,336.1z M1094.7,336.1c0-28.1-21-49.1-48.6-49.1c-28.1,0-49.1,21-49.1,49.1s21,49.1,49.1,49.1
				C1073.8,385.2,1094.7,364.2,1094.7,336.1z"/>
			<path d="M1221.4,288.4h-32.1v-66h32.1v-12.5c0-55.3,31.2-83.8,92.8-83.8h28.5v66h-21.4c-17.8,0-27.7,8.9-27.7,25.9v4.5h46.4v66
				h-46.4v161.5h-72.3V288.4z M1369,154.6c0-25.4,19.2-44.2,44.2-44.2c25.4,0,44.6,18.7,44.6,44.2c0,25-19.2,43.7-44.6,43.7
				C1388.2,198.3,1369,179.6,1369,154.6z M1377,222.4h72.2v227.5H1377V222.4z"/>
			<path d="M1499.7,128.7h72.2v321.1h-72.2V128.7z"/>
			<path d="M1614.3,154.6c0-25.4,19.2-44.2,44.1-44.2c25.4,0,44.2,18.7,44.2,44.2c0,25-18.7,43.7-44.2,43.7
				C1633.4,198.3,1614.3,179.6,1614.3,154.6z M1622.3,222.4h72.2v227.5h-72.2V222.4z"/>
			<path d="M1732,336.1c0-67.8,46.8-119.1,108.8-119.1c25,0,46.4,8.9,63.3,23.6v-18.3h72.2v227.5h-72.2v-18.3
				c-16.9,14.7-38.4,23.6-63.3,23.6C1778.8,455.2,1732,403.9,1732,336.1z M1904.1,336.1c0-28.1-21-49.1-49.1-49.1
				c-28.1,0-48.6,21-48.6,49.1s20.5,49.1,48.6,49.1C1883.2,385.2,1904.1,364.2,1904.1,336.1z"/>
		</g>
		<g>
			<path d="M527.2,631.5c0-55.1,42-96.8,97.4-96.8c44.5,0,80.3,27.1,91.4,65.9H698c-10.3-29.6-38.8-49.6-73.5-49.6
				c-45.6,0-80.3,34.4-80.3,80.6c0,46.1,34.7,80.5,80.3,80.5c34.7,0,63.2-20.1,73.5-49.6H716c-11.1,38.8-46.9,65.9-91.4,65.9
				C569.2,728.3,527.2,686.5,527.2,631.5z"/>
			<path d="M741.7,655.9c0-41.2,31.5-72.4,73.2-72.4c41.5,0,73,31.2,73,72.4c0,41.2-31.5,72.4-73,72.4
				C773.1,728.3,741.7,697.1,741.7,655.9z M871.6,655.9c0-32.6-24.1-57.2-56.7-57.2c-32.5,0-56.9,24.7-56.9,57.2
				c0,32.5,24.4,57.2,56.9,57.2C847.5,713.1,871.6,688.4,871.6,655.9z"/>
			<path d="M912.8,655.9c0-41.2,31.5-72.4,73.2-72.4c33.9,0,61.3,21.2,68.1,51.3h-16.5c-6.5-21.4-26.8-36.1-51.5-36.1
				c-32.5,0-56.9,24.7-56.9,57.2c0,32.5,24.4,57.2,56.9,57.2c24.7,0,45-14.7,51.5-36.1h16.5c-6.8,30.1-34.2,51.3-68.1,51.3
				C944.3,728.3,912.8,697.1,912.8,655.9z"/>
			<path d="M1087.7,586.7h15.7v30.1c10.3-20.1,29.3-32.3,53.7-32.3h3.5v16.3h-3.5c-32.8,0-53.7,20.6-53.7,52.6V725h-15.7V586.7z"/>
			<path d="M1169.9,655.9c0-41.2,31.5-72.4,73-72.4c41.8,0,73.2,31.2,73.2,72.4c0,2.2-0.3,4.6-0.5,6.5h-129.1
				c3,29.8,26.3,51.3,57.5,51.3c23.3,0,43.4-11.9,52.1-29.8h17.6c-10.6,26.6-37.7,44.5-70,44.5
				C1201.4,728.3,1169.9,697.1,1169.9,655.9z M1186.4,648.3h113.1c-2.7-27.7-25.5-50.2-56.7-50.2C1213,598.1,1190,619,1186.4,648.3z
				"/>
			<path d="M1340.5,655.9c0-41.2,30.1-72.4,70.2-72.4c26.6,0,48,13.6,59.7,35v-31.7h15.7V725h-15.7v-31.7
				c-11.7,21.4-33.1,35-59.7,35C1370.6,728.3,1340.5,697.1,1340.5,655.9z M1470.4,655.9c0-32.6-24.4-57.2-57-57.2
				c-32.3,0-56.7,24.7-56.7,57.2c0,32.5,24.4,57.2,56.7,57.2C1446,713.1,1470.4,688.4,1470.4,655.9z"/>
			<path d="M1544.9,686.5v-85.4h-27.1v-14.4h18.2c6.2,0,9.5-3.5,9.5-9.5v-29.8h15.2v39.3h40.4v14.4h-40.4v83
				c0,16,10.6,26.3,27.1,26.3h13.3V725h-15.5C1560.1,725,1544.9,710.4,1544.9,686.5z"/>
			<path d="M1630.3,545c0-6.5,5.2-11.4,11.4-11.4c6.5,0,11.7,4.9,11.7,11.4s-5.2,11.4-11.7,11.4
				C1635.5,556.4,1630.3,551.5,1630.3,545z M1633.9,586.7h15.7V725h-15.7V586.7z"/>
			<path d="M1677.5,586.7h18.2l53.4,119.9l53.4-119.9h17.6L1757.3,725h-16.8L1677.5,586.7z"/>
			<path d="M1830.7,655.9c0-41.2,30.1-72.4,70.2-72.4c26.6,0,48,13.6,59.7,35v-31.7h15.7V725h-15.7v-31.7
				c-11.7,21.4-33.1,35-59.7,35C1860.9,728.3,1830.7,697.1,1830.7,655.9z M1960.7,655.9c0-32.6-24.4-57.2-56.9-57.2
				c-32.3,0-56.7,24.7-56.7,57.2c0,32.5,24.4,57.2,56.7,57.2C1936.2,713.1,1960.7,688.4,1960.7,655.9z"/>
		</g>
	</g>
</g>
<g id="Guías" class="st4">
</g>
</svg>
